# xmcd CD database file
#
# Track frame offsets:
#	150
#	11053
#	25952
#	42716
#	53302
#	70278
#	84669
#	97523
#	112376
#	131426
#
# Disc length: 1914 seconds
#
# Revision: 0
# Processed by: cddbd v1.5.2PL0 Copyright (c) Steve Scherf et al.
# Submitted via: CDex 1.51
#
DISCID=7f07780a
DTITLE=The Troubadillos - Tour de Honky-Tonk 2006
DYEAR=2006
DGENRE=Country
TTITLE0=Troubadillo (Theme) (Morse)
TTITLE1=Are You Sure Willie Did It This Way? (Jennings/Long)
TTITLE2=Hard Time Letting Go (Powers/McDavid)
TTITLE3=I Don't Like It (But I Guess Things Happen That Way) (Clements)
TTITLE4=Texas Blues (Clark/Foy)
TTITLE5=Pretend It Don't Hurt (Long)
TTITLE6=Girl with the Honky-Tonk Heart (Long)
TTITLE7=Waltz Across Texas (Tubb)
TTITLE8=Folsom Prison Blues (Cash)
TTITLE9=Some Days Chicken (McMurtry/Morse)
EXTD=YEAR: 2006
EXTT0=
EXTT1=
EXTT2=
EXTT3=
EXTT4=
EXTT5=
EXTT6=
EXTT7=
EXTT8=
EXTT9=
PLAYORDER=
